<svg xmlns="http://www.w3.org/2000/svg" xmlns:xlink="http://www.w3.org/1999/xlink" width="173" zoomAndPan="magnify" viewBox="0 0 129.75 46.499999" height="62" preserveAspectRatio="xMidYMid meet" version="1.0"><defs><g/><clipPath id="55e3ea8bf6"><path d="M 20.433594 10.949219 L 35 10.949219 L 35 35.859375 L 20.433594 35.859375 Z M 20.433594 10.949219 " clip-rule="nonzero"/></clipPath><clipPath id="dca3871a40"><path d="M 30 11 L 48.710938 11 L 48.710938 28 L 30 28 Z M 30 11 " clip-rule="nonzero"/></clipPath><clipPath id="8a697dd3a2"><path d="M 28 24 L 45 24 L 45 35.859375 L 28 35.859375 Z M 28 24 " clip-rule="nonzero"/></clipPath><clipPath id="7723c3c9dc"><path d="M 10.632812 7 L 40.929688 7 L 40.929688 40.960938 L 10.632812 40.960938 Z M 10.632812 7 " clip-rule="nonzero"/></clipPath><clipPath id="7d56ee1757"><path d="M 24 3.257812 L 34 3.257812 L 34 13 L 24 13 Z M 24 3.257812 " clip-rule="nonzero"/></clipPath><clipPath id="0e0eef2b15"><path d="M 86.792969 20.855469 L 98.535156 20.855469 L 98.535156 26.726562 L 86.792969 26.726562 Z M 86.792969 20.855469 " clip-rule="nonzero"/></clipPath><clipPath id="5416325984"><path d="M 95.597656 20.855469 L 86.792969 20.855469 L 86.792969 26.726562 L 95.597656 26.726562 L 98.535156 23.789062 Z M 95.597656 20.855469 " clip-rule="nonzero"/></clipPath><clipPath id="9072b80b94"><path d="M 49.226562 20.855469 L 60.96875 20.855469 L 60.96875 26.726562 L 49.226562 26.726562 Z M 49.226562 20.855469 " clip-rule="nonzero"/></clipPath><clipPath id="81863a49f0"><path d="M 52.164062 26.726562 L 60.96875 26.726562 L 60.96875 20.855469 L 52.164062 20.855469 L 49.226562 23.789062 Z M 52.164062 26.726562 " clip-rule="nonzero"/></clipPath><clipPath id="1c10bde6a6"><path d="M 56 21.003906 L 57 21.003906 L 57 23 L 56 23 Z M 56 21.003906 " clip-rule="nonzero"/></clipPath><clipPath id="acc2bafd11"><path d="M 54 21.003906 L 58 21.003906 L 58 26 L 54 26 Z M 54 21.003906 " clip-rule="nonzero"/></clipPath><clipPath id="688d856583"><path d="M 53.484375 23 L 58.871094 23 L 58.871094 26.390625 L 53.484375 26.390625 Z M 53.484375 23 " clip-rule="nonzero"/></clipPath><clipPath id="7c0dbd5e6a"><path d="M 91 21.003906 L 93 21.003906 L 93 23 L 91 23 Z M 91 21.003906 " clip-rule="nonzero"/></clipPath><clipPath id="85cc337c7c"><path d="M 90 21.003906 L 95 21.003906 L 95 26 L 90 26 Z M 90 21.003906 " clip-rule="nonzero"/></clipPath><clipPath id="480ccffe5c"><path d="M 89.84375 23 L 95.042969 23 L 95.042969 26.390625 L 89.84375 26.390625 Z M 89.84375 23 " clip-rule="nonzero"/></clipPath></defs><g clip-path="url(#55e3ea8bf6)"><path fill="#0068f3" d="M 25.726562 19.441406 L 25.691406 19.523438 C 25.691406 19.523438 21.769531 28.746094 20.433594 31.886719 L 24.234375 35.957031 L 30.632812 20.847656 L 34.824219 10.949219 L 21.96875 15.339844 " fill-opacity="1" fill-rule="nonzero"/></g><g clip-path="url(#dca3871a40)"><path fill="#0068f3" d="M 35.273438 27.34375 L 48.414062 16.375 L 35.257812 11.066406 L 33.371094 15.746094 L 38.132812 17.667969 L 30.722656 24.03125 " fill-opacity="1" fill-rule="nonzero"/></g><g clip-path="url(#8a697dd3a2)"><path fill="#00e7ff" d="M 30.097656 24.714844 L 44.171875 35.269531 L 35.4375 35.601562 L 28.683594 30.074219 L 30.097656 24.714844 " fill-opacity="1" fill-rule="nonzero"/></g><g clip-path="url(#7723c3c9dc)"><path fill="#00e7ff" d="M 41.039062 34.054688 C 37.957031 38.15625 33.050781 40.808594 27.527344 40.808594 C 21.566406 40.808594 16.328125 37.722656 13.320312 33.0625 C 11.617188 30.425781 10.632812 27.285156 10.632812 23.914062 C 10.632812 23.632812 10.636719 23.351562 10.652344 23.070312 C 11.09375 14.132812 18.480469 7.019531 27.527344 7.019531 C 27.898438 7.019531 28.265625 7.03125 28.628906 7.054688 C 28.574219 7.113281 28.523438 7.183594 28.488281 7.269531 C 28.40625 7.46875 28.421875 7.703125 28.410156 7.917969 C 28.410156 8.003906 28.285156 8.105469 28.238281 8.171875 C 28.132812 8.308594 28.074219 8.441406 28.019531 8.605469 C 28.007812 8.644531 28 8.683594 28 8.714844 C 27.839844 8.710938 27.683594 8.707031 27.527344 8.707031 C 19.128906 8.707031 12.320312 15.515625 12.320312 23.914062 C 12.320312 24.042969 12.320312 24.175781 12.324219 24.304688 L 12.324219 24.308594 C 12.328125 24.4375 12.332031 24.566406 12.339844 24.695312 L 12.339844 24.699219 C 12.347656 24.824219 12.355469 24.953125 12.363281 25.082031 L 12.363281 25.085938 C 12.375 25.214844 12.386719 25.339844 12.398438 25.46875 C 12.425781 25.722656 12.457031 25.976562 12.496094 26.230469 C 12.515625 26.355469 12.535156 26.480469 12.558594 26.605469 C 12.578125 26.730469 12.601562 26.855469 12.628906 26.976562 L 12.628906 26.980469 C 12.652344 27.101562 12.679688 27.222656 12.707031 27.347656 L 12.710938 27.347656 C 12.761719 27.574219 12.816406 27.796875 12.878906 28.019531 C 12.882812 28.027344 12.886719 28.039062 12.890625 28.046875 C 12.898438 28.085938 12.910156 28.121094 12.921875 28.15625 C 12.945312 28.234375 12.964844 28.308594 12.988281 28.382812 C 13 28.425781 13.015625 28.464844 13.027344 28.507812 C 13.050781 28.578125 13.074219 28.648438 13.09375 28.71875 C 13.109375 28.757812 13.121094 28.800781 13.136719 28.839844 C 13.160156 28.914062 13.1875 28.988281 13.214844 29.0625 C 13.226562 29.097656 13.238281 29.132812 13.25 29.164062 C 13.292969 29.273438 13.332031 29.378906 13.375 29.488281 L 13.375 29.492188 C 13.417969 29.597656 13.460938 29.703125 13.503906 29.804688 C 13.519531 29.839844 13.53125 29.871094 13.546875 29.90625 C 13.578125 29.976562 13.609375 30.046875 13.640625 30.121094 C 13.65625 30.160156 13.675781 30.199219 13.695312 30.234375 C 13.726562 30.304688 13.757812 30.371094 13.789062 30.4375 C 13.804688 30.472656 13.824219 30.511719 13.839844 30.550781 C 13.875 30.621094 13.910156 30.691406 13.945312 30.761719 C 13.964844 30.792969 13.976562 30.824219 13.996094 30.855469 C 14.046875 30.957031 14.097656 31.058594 14.152344 31.15625 C 14.160156 31.167969 14.164062 31.179688 14.171875 31.1875 C 14.21875 31.277344 14.269531 31.367188 14.320312 31.453125 C 14.335938 31.488281 14.355469 31.519531 14.375 31.550781 C 14.414062 31.617188 14.453125 31.683594 14.492188 31.75 C 14.515625 31.785156 14.535156 31.820312 14.558594 31.855469 L 14.675781 32.042969 C 14.699219 32.078125 14.71875 32.113281 14.742188 32.148438 C 14.785156 32.214844 14.828125 32.28125 14.875 32.347656 C 14.894531 32.375 14.910156 32.402344 14.929688 32.429688 C 14.992188 32.523438 15.054688 32.617188 15.121094 32.707031 C 15.132812 32.722656 15.144531 32.738281 15.15625 32.753906 C 15.207031 32.832031 15.265625 32.90625 15.320312 32.980469 C 15.34375 33.015625 15.367188 33.042969 15.390625 33.074219 C 15.4375 33.136719 15.480469 33.195312 15.527344 33.253906 C 15.554688 33.285156 15.578125 33.320312 15.605469 33.351562 C 15.652344 33.410156 15.695312 33.46875 15.742188 33.523438 C 15.769531 33.554688 15.796875 33.589844 15.820312 33.621094 C 15.875 33.679688 15.925781 33.742188 15.976562 33.804688 C 16 33.828125 16.019531 33.851562 16.039062 33.878906 C 16.113281 33.960938 16.1875 34.046875 16.265625 34.128906 C 16.277344 34.144531 16.292969 34.160156 16.308594 34.175781 C 16.371094 34.246094 16.433594 34.3125 16.496094 34.378906 L 16.574219 34.460938 C 16.625 34.511719 16.679688 34.566406 16.734375 34.621094 C 16.761719 34.652344 16.792969 34.679688 16.820312 34.710938 C 16.875 34.761719 16.925781 34.8125 16.980469 34.867188 C 17.007812 34.894531 17.039062 34.921875 17.066406 34.949219 C 17.125 35.003906 17.1875 35.0625 17.25 35.117188 C 17.273438 35.136719 17.292969 35.160156 17.316406 35.179688 C 17.398438 35.253906 17.480469 35.328125 17.566406 35.402344 C 17.585938 35.417969 17.605469 35.433594 17.625 35.453125 C 17.691406 35.507812 17.757812 35.566406 17.824219 35.621094 C 17.855469 35.644531 17.886719 35.671875 17.917969 35.695312 C 17.972656 35.742188 18.03125 35.789062 18.089844 35.835938 C 18.125 35.863281 18.15625 35.886719 18.1875 35.914062 C 18.246094 35.960938 18.308594 36.003906 18.367188 36.050781 C 18.398438 36.074219 18.429688 36.097656 18.460938 36.121094 C 18.53125 36.171875 18.601562 36.222656 18.671875 36.273438 C 18.691406 36.289062 18.714844 36.304688 18.734375 36.320312 C 18.828125 36.386719 18.917969 36.449219 19.011719 36.511719 C 19.035156 36.527344 19.058594 36.542969 19.085938 36.558594 C 19.15625 36.605469 19.226562 36.652344 19.296875 36.699219 C 19.332031 36.722656 19.363281 36.742188 19.398438 36.765625 C 19.460938 36.804688 19.523438 36.84375 19.585938 36.882812 C 19.621094 36.90625 19.660156 36.925781 19.695312 36.949219 C 19.757812 36.988281 19.824219 37.023438 19.886719 37.0625 C 19.921875 37.082031 19.957031 37.101562 19.992188 37.121094 C 20.070312 37.167969 20.148438 37.210938 20.226562 37.253906 C 20.246094 37.265625 20.265625 37.277344 20.289062 37.289062 C 20.386719 37.339844 20.488281 37.394531 20.589844 37.445312 C 20.617188 37.460938 20.640625 37.472656 20.671875 37.488281 C 20.742188 37.523438 20.820312 37.5625 20.894531 37.597656 C 20.929688 37.617188 20.96875 37.632812 21.007812 37.652344 C 21.074219 37.683594 21.140625 37.714844 21.207031 37.746094 C 21.246094 37.761719 21.285156 37.78125 21.324219 37.796875 C 21.390625 37.828125 21.460938 37.859375 21.53125 37.890625 C 21.566406 37.90625 21.605469 37.921875 21.640625 37.9375 C 21.726562 37.972656 21.8125 38.007812 21.898438 38.042969 C 21.917969 38.050781 21.9375 38.058594 21.957031 38.066406 C 22.066406 38.109375 22.171875 38.148438 22.277344 38.1875 C 22.308594 38.199219 22.339844 38.210938 22.367188 38.222656 C 22.449219 38.25 22.527344 38.277344 22.605469 38.304688 C 22.644531 38.316406 22.683594 38.328125 22.722656 38.34375 C 22.792969 38.367188 22.867188 38.390625 22.9375 38.414062 C 22.976562 38.425781 23.019531 38.4375 23.0625 38.449219 C 23.132812 38.472656 23.210938 38.496094 23.285156 38.519531 C 23.320312 38.527344 23.359375 38.539062 23.394531 38.550781 C 23.492188 38.578125 23.585938 38.605469 23.683594 38.628906 C 23.699219 38.632812 23.714844 38.636719 23.730469 38.640625 C 23.84375 38.671875 23.957031 38.699219 24.070312 38.722656 C 24.105469 38.730469 24.136719 38.738281 24.171875 38.746094 C 24.253906 38.765625 24.332031 38.78125 24.410156 38.796875 C 24.453125 38.808594 24.496094 38.816406 24.539062 38.824219 C 24.613281 38.839844 24.6875 38.855469 24.761719 38.867188 C 24.804688 38.875 24.847656 38.882812 24.890625 38.890625 C 24.96875 38.902344 25.050781 38.917969 25.128906 38.929688 C 25.167969 38.9375 25.203125 38.941406 25.242188 38.949219 C 25.351562 38.964844 25.460938 38.980469 25.570312 38.996094 C 25.578125 38.996094 25.585938 38.996094 25.589844 38.996094 C 25.707031 39.011719 25.824219 39.023438 25.945312 39.039062 C 25.980469 39.042969 26.019531 39.042969 26.054688 39.046875 C 26.136719 39.054688 26.21875 39.0625 26.304688 39.070312 C 26.335938 39.074219 26.371094 39.074219 26.410156 39.078125 C 26.417969 39.078125 26.425781 39.078125 26.433594 39.078125 C 26.511719 39.085938 26.589844 39.089844 26.667969 39.09375 C 26.710938 39.097656 26.753906 39.101562 26.800781 39.101562 C 26.882812 39.105469 26.964844 39.109375 27.046875 39.113281 C 27.085938 39.113281 27.125 39.113281 27.164062 39.117188 C 27.28125 39.117188 27.402344 39.121094 27.523438 39.121094 C 27.574219 39.121094 27.625 39.121094 27.675781 39.121094 L 27.699219 39.121094 C 27.722656 39.121094 27.746094 39.121094 27.773438 39.117188 C 32.863281 39.101562 37.507812 37.191406 41.039062 34.054688 Z M 41.039062 34.054688 " fill-opacity="1" fill-rule="evenodd"/></g><path fill="#00e7ff" d="M 27.527344 39.121094 C 27.609375 39.121094 27.691406 39.121094 27.773438 39.117188 C 27.691406 39.121094 27.609375 39.121094 27.527344 39.121094 Z M 27.527344 39.121094 " fill-opacity="1" fill-rule="evenodd"/><path fill="#0068f3" d="M 28.371094 37.40625 C 28.257812 37.414062 28.144531 37.421875 28.027344 37.425781 C 27.863281 37.429688 27.695312 37.433594 27.527344 37.433594 C 25.996094 37.433594 24.523438 37.179688 23.152344 36.710938 C 17.886719 34.910156 14.085938 29.949219 14.011719 24.09375 C 14.011719 24.035156 14.011719 23.972656 14.011719 23.914062 C 14.011719 23.863281 14.011719 23.808594 14.011719 23.753906 C 14.09375 17.453125 19.125 12.351562 25.394531 12.148438 L 25.34375 12.289062 C 23.570312 12.621094 21.933594 13.347656 20.535156 14.375 C 17.65625 16.488281 15.765625 19.875 15.699219 23.707031 C 15.699219 23.773438 15.699219 23.84375 15.699219 23.914062 C 15.699219 28.324219 17.8125 32.242188 21.082031 34.710938 C 23.136719 36.261719 25.644531 37.238281 28.371094 37.40625 Z M 28.371094 37.40625 " fill-opacity="1" fill-rule="evenodd"/><g clip-path="url(#7d56ee1757)"><path fill="#00e7ff" d="M 33.359375 7.867188 C 33.339844 7.925781 33.289062 7.980469 33.210938 8.027344 C 33.027344 8.148438 32.6875 8.246094 32.238281 8.328125 C 32.222656 8.328125 32.207031 8.332031 32.191406 8.332031 C 31.929688 8.378906 31.632812 8.417969 31.308594 8.449219 C 31.058594 8.472656 30.789062 8.492188 30.511719 8.507812 L 30.21875 8.914062 L 29.652344 9.691406 L 29.253906 10.242188 L 29.25 10.242188 L 28.539062 11.226562 L 28.113281 11.8125 L 27.960938 12.015625 L 27.792969 12.25 L 27.742188 12.316406 C 27.65625 12.417969 27.523438 12.484375 27.378906 12.484375 C 27.117188 12.484375 26.902344 12.269531 26.902344 12.003906 C 26.902344 11.976562 26.902344 11.949219 26.90625 11.925781 C 26.933594 11.863281 26.957031 11.796875 26.984375 11.734375 C 26.988281 11.71875 26.996094 11.699219 27.003906 11.683594 C 27.011719 11.664062 27.019531 11.640625 27.03125 11.617188 L 27.492188 10.347656 C 27.675781 9.804688 27.84375 9.261719 27.988281 8.722656 C 27.996094 8.703125 28 8.683594 28.003906 8.664062 L 24.964844 8.664062 L 24.964844 7.316406 C 25.222656 7.269531 25.480469 7.226562 25.742188 7.191406 C 26.152344 7.132812 26.566406 7.09375 26.980469 7.074219 L 28.003906 7.074219 C 28.003906 7.066406 28 7.058594 28 7.050781 C 27.847656 6.5 27.679688 5.945312 27.492188 5.390625 L 27.089844 4.285156 L 27.03125 4.121094 C 27.023438 4.097656 27.011719 4.078125 27.003906 4.054688 C 26.996094 4.039062 26.992188 4.019531 26.984375 4.003906 C 26.957031 3.941406 26.933594 3.875 26.90625 3.8125 C 26.902344 3.789062 26.902344 3.761719 26.902344 3.734375 C 26.902344 3.46875 27.117188 3.253906 27.382812 3.253906 C 27.527344 3.253906 27.65625 3.320312 27.746094 3.421875 L 27.792969 3.488281 L 27.960938 3.722656 L 28.113281 3.925781 L 28.453125 4.390625 L 28.539062 4.511719 L 29.25 5.496094 L 29.253906 5.496094 L 29.652344 6.046875 L 30.511719 7.230469 C 30.789062 7.246094 31.058594 7.265625 31.308594 7.289062 C 31.632812 7.320312 31.929688 7.359375 32.191406 7.40625 C 32.207031 7.40625 32.222656 7.410156 32.238281 7.414062 C 32.6875 7.492188 33.027344 7.589844 33.214844 7.710938 C 33.289062 7.757812 33.339844 7.8125 33.359375 7.867188 Z M 33.359375 7.867188 " fill-opacity="1" fill-rule="evenodd"/></g><g fill="#c1ff72" fill-opacity="1"><g transform="translate(53.217956, 37.008606)"><g><path d="M 5.015625 -6.6875 C 5.054688 -6.539062 5.078125 -6.351562 5.078125 -6.125 C 5.078125 -5.914062 5.054688 -5.734375 5.015625 -5.578125 C 5.054688 -5.429688 5.078125 -5.242188 5.078125 -5.015625 C 5.078125 -4.804688 5.054688 -4.617188 5.015625 -4.453125 C 5.054688 -4.304688 5.078125 -4.125 5.078125 -3.90625 C 5.078125 -3.6875 5.054688 -3.5 5.015625 -3.34375 C 5.054688 -3.195312 5.078125 -3.007812 5.078125 -2.78125 C 5.078125 -2.570312 5.054688 -2.390625 5.015625 -2.234375 C 5.054688 -2.078125 5.078125 -1.890625 5.078125 -1.671875 C 5.078125 -1.460938 5.054688 -1.273438 5.015625 -1.109375 C 5.054688 -0.960938 5.078125 -0.78125 5.078125 -0.5625 C 5.078125 -0.34375 5.054688 -0.15625 5.015625 0 L 3.90625 0 C 3.863281 -0.15625 3.84375 -0.34375 3.84375 -0.5625 C 3.84375 -0.78125 3.863281 -0.960938 3.90625 -1.109375 C 3.863281 -1.273438 3.84375 -1.460938 3.84375 -1.671875 C 3.84375 -1.890625 3.863281 -2.078125 3.90625 -2.234375 C 3.863281 -2.390625 3.84375 -2.570312 3.84375 -2.78125 C 3.84375 -3.007812 3.863281 -3.195312 3.90625 -3.34375 C 3.863281 -3.5 3.84375 -3.6875 3.84375 -3.90625 C 3.84375 -4.125 3.863281 -4.304688 3.90625 -4.453125 C 3.863281 -4.617188 3.84375 -4.804688 3.84375 -5.015625 C 3.84375 -5.242188 3.863281 -5.429688 3.90625 -5.578125 L 3.484375 -5.578125 C 3.523438 -5.429688 3.546875 -5.242188 3.546875 -5.015625 C 3.546875 -4.804688 3.523438 -4.617188 3.484375 -4.453125 C 3.523438 -4.304688 3.546875 -4.125 3.546875 -3.90625 C 3.546875 -3.6875 3.523438 -3.5 3.484375 -3.34375 L 3.203125 -3.34375 C 3.242188 -3.195312 3.265625 -3.007812 3.265625 -2.78125 C 3.265625 -2.570312 3.242188 -2.390625 3.203125 -2.234375 C 3.242188 -2.078125 3.265625 -1.890625 3.265625 -1.671875 C 3.265625 -1.460938 3.242188 -1.273438 3.203125 -1.109375 L 2.375 -1.109375 C 2.332031 -1.273438 2.3125 -1.460938 2.3125 -1.671875 C 2.3125 -1.890625 2.332031 -2.078125 2.375 -2.234375 C 2.332031 -2.390625 2.3125 -2.570312 2.3125 -2.78125 C 2.3125 -3.007812 2.332031 -3.195312 2.375 -3.34375 L 2.09375 -3.34375 C 2.050781 -3.5 2.03125 -3.6875 2.03125 -3.90625 C 2.03125 -4.125 2.050781 -4.304688 2.09375 -4.453125 C 2.050781 -4.617188 2.03125 -4.804688 2.03125 -5.015625 C 2.03125 -5.242188 2.050781 -5.429688 2.09375 -5.578125 L 1.671875 -5.578125 C 1.710938 -5.429688 1.734375 -5.242188 1.734375 -5.015625 C 1.734375 -4.804688 1.710938 -4.617188 1.671875 -4.453125 C 1.710938 -4.304688 1.734375 -4.125 1.734375 -3.90625 C 1.734375 -3.6875 1.710938 -3.5 1.671875 -3.34375 C 1.710938 -3.195312 1.734375 -3.007812 1.734375 -2.78125 C 1.734375 -2.570312 1.710938 -2.390625 1.671875 -2.234375 C 1.710938 -2.078125 1.734375 -1.890625 1.734375 -1.671875 C 1.734375 -1.460938 1.710938 -1.273438 1.671875 -1.109375 C 1.710938 -0.960938 1.734375 -0.78125 1.734375 -0.5625 C 1.734375 -0.34375 1.710938 -0.15625 1.671875 0 L 0.5625 0 C 0.519531 -0.15625 0.5 -0.34375 0.5 -0.5625 C 0.5 -0.78125 0.519531 -0.960938 0.5625 -1.109375 C 0.519531 -1.273438 0.5 -1.460938 0.5 -1.671875 C 0.5 -1.890625 0.519531 -2.078125 0.5625 -2.234375 C 0.519531 -2.390625 0.5 -2.570312 0.5 -2.78125 C 0.5 -3.007812 0.519531 -3.195312 0.5625 -3.34375 C 0.519531 -3.5 0.5 -3.6875 0.5 -3.90625 C 0.5 -4.125 0.519531 -4.304688 0.5625 -4.453125 C 0.519531 -4.617188 0.5 -4.804688 0.5 -5.015625 C 0.5 -5.242188 0.519531 -5.429688 0.5625 -5.578125 C 0.519531 -5.734375 0.5 -5.914062 0.5 -6.125 C 0.5 -6.351562 0.519531 -6.539062 0.5625 -6.6875 C 0.519531 -6.84375 0.5 -7.03125 0.5 -7.25 C 0.5 -7.46875 0.519531 -7.65625 0.5625 -7.8125 L 1.953125 -7.8125 C 1.984375 -7.65625 2 -7.46875 2 -7.25 C 2 -7.03125 1.984375 -6.84375 1.953125 -6.6875 L 2.375 -6.6875 C 2.40625 -6.539062 2.421875 -6.351562 2.421875 -6.125 C 2.421875 -5.914062 2.40625 -5.734375 2.375 -5.578125 L 2.578125 -5.578125 C 2.617188 -5.429688 2.640625 -5.242188 2.640625 -5.015625 C 2.640625 -4.804688 2.617188 -4.617188 2.578125 -4.453125 L 3 -4.453125 C 2.957031 -4.617188 2.9375 -4.804688 2.9375 -5.015625 C 2.9375 -5.242188 2.957031 -5.429688 3 -5.578125 L 3.203125 -5.578125 C 3.171875 -5.734375 3.15625 -5.914062 3.15625 -6.125 C 3.15625 -6.351562 3.171875 -6.539062 3.203125 -6.6875 L 3.625 -6.6875 C 3.582031 -6.84375 3.5625 -7.03125 3.5625 -7.25 C 3.5625 -7.46875 3.582031 -7.65625 3.625 -7.8125 L 5.015625 -7.8125 C 5.054688 -7.65625 5.078125 -7.46875 5.078125 -7.25 C 5.078125 -7.03125 5.054688 -6.84375 5.015625 -6.6875 Z M 5.015625 -6.6875 "/></g></g></g><g fill="#c1ff72" fill-opacity="1"><g transform="translate(62.150608, 37.008606)"><g><path d="M 2.234375 -3.34375 C 2.265625 -3.195312 2.28125 -3.007812 2.28125 -2.78125 C 2.28125 -2.570312 2.265625 -2.390625 2.234375 -2.234375 C 2.265625 -2.078125 2.28125 -1.890625 2.28125 -1.671875 C 2.28125 -1.460938 2.265625 -1.273438 2.234375 -1.109375 L 4.453125 -1.109375 C 4.492188 -0.960938 4.515625 -0.78125 4.515625 -0.5625 C 4.515625 -0.34375 4.492188 -0.15625 4.453125 0 L 1.109375 0 C 1.078125 -0.15625 1.0625 -0.34375 1.0625 -0.5625 C 1.0625 -0.78125 1.078125 -0.960938 1.109375 -1.109375 C 1.078125 -1.273438 1.0625 -1.460938 1.0625 -1.671875 C 1.0625 -1.890625 1.078125 -2.078125 1.109375 -2.234375 C 1.078125 -2.390625 1.0625 -2.570312 1.0625 -2.78125 C 1.0625 -3.007812 1.078125 -3.195312 1.109375 -3.34375 C 1.078125 -3.5 1.0625 -3.6875 1.0625 -3.90625 C 1.0625 -4.125 1.078125 -4.304688 1.109375 -4.453125 C 1.078125 -4.617188 1.0625 -4.804688 1.0625 -5.015625 C 1.0625 -5.242188 1.078125 -5.429688 1.109375 -5.578125 C 1.078125 -5.734375 1.0625 -5.914062 1.0625 -6.125 C 1.0625 -6.351562 1.078125 -6.539062 1.109375 -6.6875 C 1.078125 -6.84375 1.0625 -7.03125 1.0625 -7.25 C 1.0625 -7.46875 1.078125 -7.65625 1.109375 -7.8125 L 4.453125 -7.8125 C 4.492188 -7.65625 4.515625 -7.46875 4.515625 -7.25 C 4.515625 -7.03125 4.492188 -6.84375 4.453125 -6.6875 L 2.234375 -6.6875 C 2.265625 -6.539062 2.28125 -6.351562 2.28125 -6.125 C 2.28125 -5.914062 2.265625 -5.734375 2.234375 -5.578125 C 2.265625 -5.429688 2.28125 -5.242188 2.28125 -5.015625 C 2.28125 -4.804688 2.265625 -4.617188 2.234375 -4.453125 L 4.453125 -4.453125 C 4.492188 -4.304688 4.515625 -4.125 4.515625 -3.90625 C 4.515625 -3.6875 4.492188 -3.5 4.453125 -3.34375 Z M 2.234375 -3.34375 "/></g></g></g><g fill="#c1ff72" fill-opacity="1"><g transform="translate(71.083261, 37.008606)"><g><path d="M 5.015625 -4.453125 C 5.054688 -4.304688 5.078125 -4.125 5.078125 -3.90625 C 5.078125 -3.6875 5.054688 -3.5 5.015625 -3.34375 C 5.054688 -3.195312 5.078125 -3.007812 5.078125 -2.78125 C 5.078125 -2.570312 5.054688 -2.390625 5.015625 -2.234375 L 4.453125 -2.234375 C 4.492188 -2.078125 4.515625 -1.890625 4.515625 -1.671875 C 4.515625 -1.460938 4.492188 -1.273438 4.453125 -1.109375 L 3.90625 -1.109375 C 3.9375 -0.960938 3.953125 -0.78125 3.953125 -0.5625 C 3.953125 -0.34375 3.9375 -0.15625 3.90625 0 L 0.5625 0 C 0.519531 -0.15625 0.5 -0.34375 0.5 -0.5625 C 0.5 -0.78125 0.519531 -0.960938 0.5625 -1.109375 C 0.519531 -1.273438 0.5 -1.460938 0.5 -1.671875 C 0.5 -1.890625 0.519531 -2.078125 0.5625 -2.234375 C 0.519531 -2.390625 0.5 -2.570312 0.5 -2.78125 C 0.5 -3.007812 0.519531 -3.195312 0.5625 -3.34375 C 0.519531 -3.5 0.5 -3.6875 0.5 -3.90625 C 0.5 -4.125 0.519531 -4.304688 0.5625 -4.453125 C 0.519531 -4.617188 0.5 -4.804688 0.5 -5.015625 C 0.5 -5.242188 0.519531 -5.429688 0.5625 -5.578125 C 0.519531 -5.734375 0.5 -5.914062 0.5 -6.125 C 0.5 -6.351562 0.519531 -6.539062 0.5625 -6.6875 C 0.519531 -6.84375 0.5 -7.03125 0.5 -7.25 C 0.5 -7.46875 0.519531 -7.65625 0.5625 -7.8125 L 3.90625 -7.8125 C 3.9375 -7.65625 3.953125 -7.46875 3.953125 -7.25 C 3.953125 -7.03125 3.9375 -6.84375 3.90625 -6.6875 L 4.453125 -6.6875 C 4.492188 -6.539062 4.515625 -6.351562 4.515625 -6.125 C 4.515625 -5.914062 4.492188 -5.734375 4.453125 -5.578125 L 5.015625 -5.578125 C 5.054688 -5.429688 5.078125 -5.242188 5.078125 -5.015625 C 5.078125 -4.804688 5.054688 -4.617188 5.015625 -4.453125 Z M 3.90625 -2.234375 C 3.863281 -2.390625 3.84375 -2.570312 3.84375 -2.78125 C 3.84375 -3.007812 3.863281 -3.195312 3.90625 -3.34375 C 3.863281 -3.5 3.84375 -3.6875 3.84375 -3.90625 C 3.84375 -4.125 3.863281 -4.304688 3.90625 -4.453125 C 3.863281 -4.617188 3.84375 -4.804688 3.84375 -5.015625 C 3.84375 -5.242188 3.863281 -5.429688 3.90625 -5.578125 L 3.34375 -5.578125 C 3.3125 -5.734375 3.296875 -5.914062 3.296875 -6.125 C 3.296875 -6.351562 3.3125 -6.539062 3.34375 -6.6875 L 1.671875 -6.6875 C 1.710938 -6.539062 1.734375 -6.351562 1.734375 -6.125 C 1.734375 -5.914062 1.710938 -5.734375 1.671875 -5.578125 C 1.710938 -5.429688 1.734375 -5.242188 1.734375 -5.015625 C 1.734375 -4.804688 1.710938 -4.617188 1.671875 -4.453125 C 1.710938 -4.304688 1.734375 -4.125 1.734375 -3.90625 C 1.734375 -3.6875 1.710938 -3.5 1.671875 -3.34375 C 1.710938 -3.195312 1.734375 -3.007812 1.734375 -2.78125 C 1.734375 -2.570312 1.710938 -2.390625 1.671875 -2.234375 C 1.710938 -2.078125 1.734375 -1.890625 1.734375 -1.671875 C 1.734375 -1.460938 1.710938 -1.273438 1.671875 -1.109375 L 3.34375 -1.109375 C 3.3125 -1.273438 3.296875 -1.460938 3.296875 -1.671875 C 3.296875 -1.890625 3.3125 -2.078125 3.34375 -2.234375 Z M 3.90625 -2.234375 "/></g></g></g><g fill="#c1ff72" fill-opacity="1"><g transform="translate(80.015915, 37.008606)"><g><path d="M 4.1875 -1.109375 C 4.21875 -0.960938 4.234375 -0.78125 4.234375 -0.5625 C 4.234375 -0.34375 4.21875 -0.15625 4.1875 0 L 1.390625 0 C 1.359375 -0.15625 1.34375 -0.34375 1.34375 -0.5625 C 1.34375 -0.78125 1.359375 -0.960938 1.390625 -1.109375 L 2.234375 -1.109375 C 2.191406 -1.273438 2.171875 -1.460938 2.171875 -1.671875 C 2.171875 -1.890625 2.191406 -2.078125 2.234375 -2.234375 C 2.191406 -2.390625 2.171875 -2.570312 2.171875 -2.78125 C 2.171875 -3.007812 2.191406 -3.195312 2.234375 -3.34375 C 2.191406 -3.5 2.171875 -3.6875 2.171875 -3.90625 C 2.171875 -4.125 2.191406 -4.304688 2.234375 -4.453125 C 2.191406 -4.617188 2.171875 -4.804688 2.171875 -5.015625 C 2.171875 -5.242188 2.191406 -5.429688 2.234375 -5.578125 C 2.191406 -5.734375 2.171875 -5.914062 2.171875 -6.125 C 2.171875 -6.351562 2.191406 -6.539062 2.234375 -6.6875 L 1.390625 -6.6875 C 1.359375 -6.84375 1.34375 -7.03125 1.34375 -7.25 C 1.34375 -7.46875 1.359375 -7.65625 1.390625 -7.8125 L 4.1875 -7.8125 C 4.21875 -7.65625 4.234375 -7.46875 4.234375 -7.25 C 4.234375 -7.03125 4.21875 -6.84375 4.1875 -6.6875 L 3.34375 -6.6875 C 3.382812 -6.539062 3.40625 -6.351562 3.40625 -6.125 C 3.40625 -5.914062 3.382812 -5.734375 3.34375 -5.578125 C 3.382812 -5.429688 3.40625 -5.242188 3.40625 -5.015625 C 3.40625 -4.804688 3.382812 -4.617188 3.34375 -4.453125 C 3.382812 -4.304688 3.40625 -4.125 3.40625 -3.90625 C 3.40625 -3.6875 3.382812 -3.5 3.34375 -3.34375 C 3.382812 -3.195312 3.40625 -3.007812 3.40625 -2.78125 C 3.40625 -2.570312 3.382812 -2.390625 3.34375 -2.234375 C 3.382812 -2.078125 3.40625 -1.890625 3.40625 -1.671875 C 3.40625 -1.460938 3.382812 -1.273438 3.34375 -1.109375 Z M 4.1875 -1.109375 "/></g></g></g><g fill="#c1ff72" fill-opacity="1"><g transform="translate(88.948566, 37.008606)"><g><path d="M 5.078125 -1.671875 C 5.078125 -1.460938 5.054688 -1.273438 5.015625 -1.109375 C 5.054688 -0.960938 5.078125 -0.78125 5.078125 -0.5625 C 5.078125 -0.34375 5.054688 -0.15625 5.015625 0 L 3.90625 0 C 3.863281 -0.15625 3.84375 -0.34375 3.84375 -0.5625 C 3.84375 -0.78125 3.863281 -0.960938 3.90625 -1.109375 C 3.863281 -1.273438 3.84375 -1.460938 3.84375 -1.671875 C 3.84375 -1.890625 3.863281 -2.078125 3.90625 -2.234375 L 1.671875 -2.234375 C 1.710938 -2.078125 1.734375 -1.890625 1.734375 -1.671875 C 1.734375 -1.460938 1.710938 -1.273438 1.671875 -1.109375 C 1.710938 -0.960938 1.734375 -0.78125 1.734375 -0.5625 C 1.734375 -0.34375 1.710938 -0.15625 1.671875 0 L 0.5625 0 C 0.519531 -0.15625 0.5 -0.34375 0.5 -0.5625 C 0.5 -0.78125 0.519531 -0.960938 0.5625 -1.109375 C 0.519531 -1.273438 0.5 -1.460938 0.5 -1.671875 C 0.5 -1.890625 0.519531 -2.078125 0.5625 -2.234375 L 0.96875 -2.234375 C 0.9375 -2.390625 0.921875 -2.570312 0.921875 -2.78125 C 0.921875 -3.007812 0.9375 -3.195312 0.96875 -3.34375 C 0.9375 -3.5 0.921875 -3.6875 0.921875 -3.90625 C 0.921875 -4.125 0.9375 -4.304688 0.96875 -4.453125 L 1.25 -4.453125 C 1.21875 -4.617188 1.203125 -4.804688 1.203125 -5.015625 C 1.203125 -5.242188 1.21875 -5.429688 1.25 -5.578125 L 1.671875 -5.578125 C 1.628906 -5.734375 1.609375 -5.914062 1.609375 -6.125 C 1.609375 -6.351562 1.628906 -6.539062 1.671875 -6.6875 L 1.953125 -6.6875 C 1.910156 -6.84375 1.890625 -7.03125 1.890625 -7.25 C 1.890625 -7.46875 1.910156 -7.65625 1.953125 -7.8125 L 3.625 -7.8125 C 3.65625 -7.65625 3.671875 -7.46875 3.671875 -7.25 C 3.671875 -7.03125 3.65625 -6.84375 3.625 -6.6875 L 3.90625 -6.6875 C 3.9375 -6.539062 3.953125 -6.351562 3.953125 -6.125 C 3.953125 -5.914062 3.9375 -5.734375 3.90625 -5.578125 L 4.328125 -5.578125 C 4.359375 -5.429688 4.375 -5.242188 4.375 -5.015625 C 4.375 -4.804688 4.359375 -4.617188 4.328125 -4.453125 L 4.59375 -4.453125 C 4.632812 -4.304688 4.65625 -4.125 4.65625 -3.90625 C 4.65625 -3.6875 4.632812 -3.5 4.59375 -3.34375 C 4.632812 -3.195312 4.65625 -3.007812 4.65625 -2.78125 C 4.65625 -2.570312 4.632812 -2.390625 4.59375 -2.234375 L 5.015625 -2.234375 C 5.054688 -2.078125 5.078125 -1.890625 5.078125 -1.671875 Z M 3.484375 -3.34375 C 3.441406 -3.5 3.421875 -3.6875 3.421875 -3.90625 C 3.421875 -4.125 3.441406 -4.304688 3.484375 -4.453125 L 3.203125 -4.453125 C 3.171875 -4.617188 3.15625 -4.804688 3.15625 -5.015625 C 3.15625 -5.242188 3.171875 -5.429688 3.203125 -5.578125 L 2.375 -5.578125 C 2.40625 -5.429688 2.421875 -5.242188 2.421875 -5.015625 C 2.421875 -4.804688 2.40625 -4.617188 2.375 -4.453125 L 2.09375 -4.453125 C 2.125 -4.304688 2.140625 -4.125 2.140625 -3.90625 C 2.140625 -3.6875 2.125 -3.5 2.09375 -3.34375 Z M 3.484375 -3.34375 "/></g></g></g><g fill="#000000" fill-opacity="1"><g transform="translate(50.495922, 17.496664)"><g><path d="M 0.421875 -4.34375 C 0.421875 -1.640625 1.890625 0.15625 4.109375 0.15625 C 5.375 0.15625 6.34375 -0.359375 7.078125 -1.234375 L 7.078125 -4.765625 L 3.78125 -4.765625 L 3.78125 -3.25 L 5.4375 -3.25 L 5.4375 -1.921875 C 5.15625 -1.625 4.6875 -1.390625 4.109375 -1.390625 C 2.984375 -1.390625 2.21875 -2.484375 2.21875 -4.34375 C 2.21875 -6.21875 2.984375 -7.296875 4.109375 -7.296875 C 4.8125 -7.296875 5.296875 -6.828125 5.578125 -6.21875 L 7 -6.875 C 6.53125 -7.953125 5.609375 -8.859375 4.109375 -8.859375 C 1.890625 -8.859375 0.421875 -7.0625 0.421875 -4.34375 Z M 0.421875 -4.34375 "/></g></g></g><g fill="#000000" fill-opacity="1"><g transform="translate(58.146165, 17.496664)"><g><path d="M 6.734375 0 L 5.15625 -3.46875 C 5.875 -3.703125 6.671875 -4.453125 6.671875 -5.953125 C 6.671875 -7.5625 5.609375 -8.71875 4.015625 -8.71875 L 0.765625 -8.71875 L 0.765625 0 L 2.515625 0 L 2.515625 -3.15625 L 3.46875 -3.15625 L 4.796875 0 Z M 4.890625 -5.9375 C 4.890625 -5.1875 4.4375 -4.671875 3.765625 -4.671875 L 2.515625 -4.671875 L 2.515625 -7.1875 L 3.765625 -7.1875 C 4.4375 -7.1875 4.890625 -6.703125 4.890625 -5.9375 Z M 4.890625 -5.9375 "/></g></g></g><g fill="#000000" fill-opacity="1"><g transform="translate(65.339485, 17.496664)"><g><path d="M 0.421875 -4.34375 C 0.421875 -1.75 1.78125 0.15625 4.046875 0.15625 C 6.328125 0.15625 7.6875 -1.75 7.6875 -4.34375 C 7.6875 -6.9375 6.328125 -8.859375 4.046875 -8.859375 C 1.78125 -8.859375 0.421875 -6.9375 0.421875 -4.34375 Z M 5.90625 -4.34375 C 5.90625 -2.6875 5.25 -1.390625 4.046875 -1.390625 C 2.859375 -1.390625 2.21875 -2.6875 2.21875 -4.34375 C 2.21875 -6.03125 2.859375 -7.296875 4.046875 -7.296875 C 5.25 -7.296875 5.90625 -6.03125 5.90625 -4.34375 Z M 5.90625 -4.34375 "/></g></g></g><g fill="#000000" fill-opacity="1"><g transform="translate(73.45971, 17.496664)"><g><path d="M 7.953125 0 L 9.9375 -8.71875 L 8.0625 -8.71875 L 6.953125 -2.65625 L 5.6875 -8.71875 L 4.328125 -8.71875 L 3.078125 -2.65625 L 1.953125 -8.71875 L 0.078125 -8.71875 L 2.0625 0 L 3.890625 0 L 5 -5.796875 L 6.125 0 Z M 7.953125 0 "/></g></g></g><g fill="#000000" fill-opacity="1"><g transform="translate(83.472914, 17.496664)"><g><path d="M 3.96875 0 L 3.96875 -7.171875 L 5.90625 -7.171875 L 5.90625 -8.71875 L 0.28125 -8.71875 L 0.28125 -7.171875 L 2.21875 -7.171875 L 2.21875 0 Z M 3.96875 0 "/></g></g></g><g fill="#000000" fill-opacity="1"><g transform="translate(89.647941, 17.496664)"><g><path d="M 7.171875 0 L 7.171875 -8.71875 L 5.40625 -8.71875 L 5.40625 -5.25 L 2.515625 -5.25 L 2.515625 -8.71875 L 0.765625 -8.71875 L 0.765625 0 L 2.515625 0 L 2.515625 -3.703125 L 5.40625 -3.703125 L 5.40625 0 Z M 7.171875 0 "/></g></g></g><path stroke-linecap="butt" transform="matrix(0.190889, 0, 0, 0.190889, 48.420926, 4.376995)" fill="none" stroke-linejoin="miter" d="M 12.221647 45.213765 C 12.221647 59.37447 19.95683 68.808119 31.498214 68.808119 C 38.210225 68.808119 43.28516 66.08648 47.111824 61.564059 L 47.111824 43.044639 L 29.861138 43.044639 L 29.861138 50.963993 L 38.496713 50.963993 L 38.496713 57.942029 C 37.043808 59.456324 34.588195 60.68413 31.498214 60.68413 C 25.686595 60.68413 21.655296 55.015756 21.655296 45.213765 C 21.655296 35.432237 25.686595 29.763862 31.498214 29.763862 C 35.263488 29.763862 37.800956 32.239939 39.233397 35.432237 L 46.682092 32.035305 C 44.226478 26.346467 39.438032 21.61941 31.498214 21.61941 C 19.95683 21.61941 12.221647 30.991669 12.221647 45.213765 Z M 85.419397 68.010044 L 77.131701 49.879431 C 80.876512 48.651624 85.051055 44.661252 85.051055 36.803288 C 85.051055 28.392811 79.505461 22.376558 71.176838 22.376558 L 54.15125 22.376558 L 54.15125 68.010044 L 63.318874 68.010044 L 63.318874 51.455116 L 68.230101 51.455116 L 75.208137 68.010044 Z M 75.699259 36.946532 C 75.699259 40.85505 73.366427 43.515299 69.805787 43.515299 L 63.318874 43.515299 L 63.318874 30.377766 L 69.805787 30.377766 C 73.366427 30.377766 75.699259 32.915233 75.699259 36.946532 Z M 89.982745 45.213765 C 89.982745 58.821957 97.083561 68.808119 108.993288 68.808119 C 120.964404 68.808119 128.085684 58.821957 128.085684 45.213765 C 128.085684 31.687426 120.964404 21.61941 108.993288 21.61941 C 97.083561 21.61941 89.982745 31.687426 89.982745 45.213765 Z M 118.692961 45.213765 C 118.692961 53.91073 115.296029 60.68413 108.993288 60.68413 C 102.7724 60.68413 99.416394 53.91073 99.416394 45.213765 C 99.416394 36.414482 102.7724 29.763862 108.993288 29.763862 C 115.296029 29.763862 118.692961 36.414482 118.692961 45.213765 Z M 171.979777 68.010044 L 182.375208 22.376558 L 172.53229 22.376558 L 166.720671 54.115364 L 160.151905 22.376558 L 152.969235 22.376558 L 146.482322 54.115364 L 140.58885 22.376558 L 130.745932 22.376558 L 141.141363 68.010044 L 150.718256 68.010044 L 156.529875 37.621826 L 162.402884 68.010044 Z M 203.575339 68.010044 L 203.575339 30.439156 L 213.704745 30.439156 L 213.704745 22.376558 L 184.216918 22.376558 L 184.216918 30.439156 L 194.407715 30.439156 L 194.407715 68.010044 Z M 252.687612 68.010044 L 252.687612 22.376558 L 243.458597 22.376558 L 243.458597 40.486708 L 228.33611 40.486708 L 228.33611 22.376558 L 219.168486 22.376558 L 219.168486 68.010044 L 228.33611 68.010044 L 228.33611 48.56977 L 243.458597 48.56977 L 243.458597 68.010044 Z M 252.687612 68.010044 " stroke="#000000" stroke-width="0.470277" stroke-opacity="1" stroke-miterlimit="4"/><path fill="#138eff" d="M 60.550781 20.753906 L 87.214844 20.753906 C 87.355469 20.753906 87.472656 20.867188 87.472656 21.011719 L 87.472656 26.210938 C 87.472656 26.355469 87.355469 26.46875 87.214844 26.46875 L 60.550781 26.46875 C 60.40625 26.46875 60.292969 26.355469 60.292969 26.210938 L 60.292969 21.011719 C 60.292969 20.867188 60.40625 20.753906 60.550781 20.753906 Z M 60.550781 20.753906 " fill-opacity="1" fill-rule="nonzero"/><g fill="#000000" fill-opacity="1"><g transform="translate(62.704702, 25.04749)"><g><path d="M 2.640625 -0.09375 C 2.648438 -0.0625 2.648438 -0.0351562 2.640625 -0.015625 C 2.628906 -0.00390625 2.613281 0 2.59375 0 L 2.125 0 C 2.101562 0 2.078125 -0.00390625 2.046875 -0.015625 C 2.023438 -0.0351562 2.007812 -0.0625 2 -0.09375 L 1.5 -1.1875 L 0.921875 -1.1875 L 0.921875 -0.09375 C 0.921875 -0.0703125 0.910156 -0.0507812 0.890625 -0.03125 C 0.867188 -0.0078125 0.84375 0 0.8125 0 L 0.40625 0 C 0.382812 0 0.363281 -0.0078125 0.34375 -0.03125 C 0.320312 -0.0507812 0.3125 -0.0703125 0.3125 -0.09375 L 0.3125 -2.859375 C 0.3125 -2.890625 0.320312 -2.910156 0.34375 -2.921875 C 0.363281 -2.941406 0.382812 -2.953125 0.40625 -2.953125 L 1.921875 -2.953125 C 2.023438 -2.953125 2.125 -2.929688 2.21875 -2.890625 C 2.3125 -2.859375 2.390625 -2.804688 2.453125 -2.734375 C 2.523438 -2.660156 2.582031 -2.578125 2.625 -2.484375 C 2.664062 -2.398438 2.6875 -2.300781 2.6875 -2.1875 L 2.6875 -1.9375 C 2.6875 -1.851562 2.671875 -1.769531 2.640625 -1.6875 C 2.617188 -1.613281 2.582031 -1.546875 2.53125 -1.484375 C 2.476562 -1.421875 2.414062 -1.363281 2.34375 -1.3125 C 2.28125 -1.269531 2.210938 -1.238281 2.140625 -1.21875 Z M 1.921875 -1.765625 C 1.972656 -1.765625 2.015625 -1.78125 2.046875 -1.8125 C 2.078125 -1.851562 2.09375 -1.894531 2.09375 -1.9375 L 2.09375 -2.1875 C 2.09375 -2.238281 2.078125 -2.28125 2.046875 -2.3125 C 2.015625 -2.351562 1.972656 -2.375 1.921875 -2.375 L 0.921875 -2.375 L 0.921875 -1.765625 Z M 1.921875 -1.765625 "/></g></g></g><g fill="#000000" fill-opacity="1"><g transform="translate(69.15461, 25.04749)"><g><path d="M 1.921875 -2.953125 C 2.023438 -2.953125 2.125 -2.929688 2.21875 -2.890625 C 2.3125 -2.847656 2.390625 -2.789062 2.453125 -2.71875 C 2.523438 -2.65625 2.582031 -2.578125 2.625 -2.484375 C 2.664062 -2.390625 2.6875 -2.289062 2.6875 -2.1875 L 2.6875 -0.765625 C 2.6875 -0.660156 2.664062 -0.5625 2.625 -0.46875 C 2.582031 -0.375 2.523438 -0.289062 2.453125 -0.21875 C 2.390625 -0.15625 2.3125 -0.101562 2.21875 -0.0625 C 2.125 -0.0195312 2.023438 0 1.921875 0 L 1.078125 0 C 0.972656 0 0.875 -0.0195312 0.78125 -0.0625 C 0.6875 -0.101562 0.601562 -0.15625 0.53125 -0.21875 C 0.46875 -0.289062 0.414062 -0.375 0.375 -0.46875 C 0.332031 -0.5625 0.3125 -0.660156 0.3125 -0.765625 L 0.3125 -2.1875 C 0.3125 -2.289062 0.332031 -2.390625 0.375 -2.484375 C 0.414062 -2.578125 0.46875 -2.65625 0.53125 -2.71875 C 0.601562 -2.789062 0.6875 -2.847656 0.78125 -2.890625 C 0.875 -2.929688 0.972656 -2.953125 1.078125 -2.953125 Z M 2.09375 -2.1875 C 2.09375 -2.238281 2.078125 -2.28125 2.046875 -2.3125 C 2.015625 -2.34375 1.972656 -2.359375 1.921875 -2.359375 L 1.078125 -2.359375 C 1.035156 -2.359375 0.992188 -2.34375 0.953125 -2.3125 C 0.921875 -2.28125 0.90625 -2.238281 0.90625 -2.1875 L 0.90625 -0.765625 C 0.90625 -0.710938 0.921875 -0.671875 0.953125 -0.640625 C 0.992188 -0.609375 1.035156 -0.59375 1.078125 -0.59375 L 1.921875 -0.59375 C 1.972656 -0.59375 2.015625 -0.609375 2.046875 -0.640625 C 2.078125 -0.671875 2.09375 -0.710938 2.09375 -0.765625 Z M 2.09375 -2.1875 "/></g></g></g><g fill="#000000" fill-opacity="1"><g transform="translate(75.604518, 25.04749)"><g><path d="M 2.59375 -2.953125 C 2.613281 -2.953125 2.632812 -2.945312 2.65625 -2.9375 C 2.675781 -2.914062 2.6875 -2.890625 2.6875 -2.859375 L 2.6875 -0.09375 C 2.6875 -0.0703125 2.675781 -0.0507812 2.65625 -0.03125 C 2.632812 -0.0078125 2.613281 0 2.59375 0 L 2.1875 0 C 2.164062 0 2.144531 -0.0078125 2.125 -0.03125 C 2.101562 -0.0507812 2.09375 -0.0703125 2.09375 -0.09375 L 2.09375 -1.9375 L 1.75 -1.375 C 1.726562 -1.351562 1.707031 -1.332031 1.6875 -1.3125 C 1.65625 -1.300781 1.625 -1.296875 1.59375 -1.296875 L 1.40625 -1.296875 C 1.382812 -1.296875 1.359375 -1.300781 1.328125 -1.3125 C 1.304688 -1.332031 1.285156 -1.351562 1.265625 -1.375 L 0.90625 -1.9375 L 0.90625 -0.09375 C 0.90625 -0.0703125 0.898438 -0.0507812 0.890625 -0.03125 C 0.867188 -0.0078125 0.84375 0 0.8125 0 L 0.40625 0 C 0.382812 0 0.363281 -0.0078125 0.34375 -0.03125 C 0.320312 -0.0507812 0.3125 -0.0703125 0.3125 -0.09375 L 0.3125 -2.859375 C 0.3125 -2.890625 0.320312 -2.914062 0.34375 -2.9375 C 0.363281 -2.945312 0.382812 -2.953125 0.40625 -2.953125 L 0.84375 -2.953125 C 0.851562 -2.953125 0.867188 -2.945312 0.890625 -2.9375 C 0.921875 -2.914062 0.941406 -2.894531 0.953125 -2.875 L 1.5 -1.921875 L 2.0625 -2.875 C 2.070312 -2.894531 2.09375 -2.914062 2.125 -2.9375 L 2.15625 -2.953125 C 2.164062 -2.953125 2.175781 -2.953125 2.1875 -2.953125 Z M 2.59375 -2.953125 "/></g></g></g><g fill="#000000" fill-opacity="1"><g transform="translate(82.054427, 25.04749)"><g><path d="M 1.90625 -2.953125 C 1.925781 -2.953125 1.945312 -2.941406 1.96875 -2.921875 C 2 -2.910156 2.019531 -2.894531 2.03125 -2.875 L 2.65625 -1.328125 C 2.664062 -1.304688 2.671875 -1.273438 2.671875 -1.234375 C 2.679688 -1.203125 2.6875 -1.171875 2.6875 -1.140625 L 2.6875 -0.09375 C 2.6875 -0.0703125 2.675781 -0.0507812 2.65625 -0.03125 C 2.632812 -0.0078125 2.613281 0 2.59375 0 L 2.1875 0 C 2.15625 0 2.128906 -0.0078125 2.109375 -0.03125 C 2.097656 -0.0507812 2.09375 -0.0703125 2.09375 -0.09375 L 2.09375 -0.59375 L 0.90625 -0.59375 L 0.90625 -0.09375 C 0.90625 -0.0703125 0.894531 -0.0507812 0.875 -0.03125 C 0.863281 -0.0078125 0.84375 0 0.8125 0 L 0.40625 0 C 0.382812 0 0.363281 -0.0078125 0.34375 -0.03125 C 0.320312 -0.0507812 0.3125 -0.0703125 0.3125 -0.09375 L 0.3125 -1.140625 C 0.3125 -1.171875 0.316406 -1.203125 0.328125 -1.234375 C 0.335938 -1.273438 0.347656 -1.304688 0.359375 -1.328125 L 0.96875 -2.875 C 0.976562 -2.894531 0.992188 -2.910156 1.015625 -2.921875 C 1.046875 -2.941406 1.070312 -2.953125 1.09375 -2.953125 Z M 0.9375 -1.1875 L 2.0625 -1.1875 L 1.59375 -2.375 L 1.40625 -2.375 Z M 0.9375 -1.1875 "/></g></g></g><g clip-path="url(#0e0eef2b15)"><g clip-path="url(#5416325984)"><path fill="#138eff" d="M 86.792969 20.855469 L 98.535156 20.855469 L 98.535156 26.726562 L 86.792969 26.726562 Z M 86.792969 20.855469 " fill-opacity="1" fill-rule="nonzero"/></g></g><g clip-path="url(#9072b80b94)"><g clip-path="url(#81863a49f0)"><path fill="#138eff" d="M 60.96875 26.726562 L 49.226562 26.726562 L 49.226562 20.855469 L 60.96875 20.855469 Z M 60.96875 26.726562 " fill-opacity="1" fill-rule="nonzero"/></g></g><path fill="#000000" d="M 55.222656 23.828125 C 55.1875 24.066406 55.15625 24.304688 55.121094 24.542969 C 55.117188 24.570312 55.113281 24.589844 55.101562 24.605469 C 55.03125 24.707031 54.960938 24.804688 54.894531 24.902344 C 54.746094 25.109375 54.59375 25.320312 54.445312 25.535156 C 54.414062 25.574219 54.390625 25.617188 54.382812 25.664062 C 54.351562 25.792969 54.460938 25.925781 54.59375 25.917969 C 54.683594 25.914062 54.742188 25.863281 54.792969 25.800781 C 55.0625 25.464844 55.328125 25.128906 55.59375 24.789062 C 55.628906 24.75 55.648438 24.699219 55.660156 24.648438 C 55.707031 24.4375 55.753906 24.226562 55.800781 24.011719 C 55.777344 24.007812 55.535156 23.980469 55.46875 23.96875 C 55.363281 23.949219 55.28125 23.898438 55.222656 23.828125 Z M 55.222656 23.828125 " fill-opacity="1" fill-rule="nonzero"/><g clip-path="url(#1c10bde6a6)"><path fill="#000000" d="M 56.683594 21.152344 C 56.785156 21.191406 56.859375 21.265625 56.902344 21.378906 C 56.945312 21.488281 56.941406 21.601562 56.898438 21.71875 C 56.855469 21.832031 56.777344 21.917969 56.671875 21.972656 C 56.566406 22.023438 56.460938 22.03125 56.359375 21.992188 C 56.253906 21.953125 56.179688 21.875 56.136719 21.765625 C 56.09375 21.65625 56.097656 21.542969 56.140625 21.425781 C 56.1875 21.308594 56.261719 21.226562 56.367188 21.171875 C 56.472656 21.117188 56.578125 21.109375 56.683594 21.152344 Z M 56.683594 21.152344 " fill-opacity="1" fill-rule="nonzero"/></g><g clip-path="url(#acc2bafd11)"><path fill="#000000" d="M 54.25 23.28125 C 54.300781 23.28125 54.335938 23.265625 54.371094 23.242188 C 54.410156 23.214844 54.886719 22.71875 54.941406 22.691406 C 55 22.664062 55.535156 22.558594 55.535156 22.558594 L 55.273438 23.355469 C 55.253906 23.421875 55.246094 23.484375 55.25 23.550781 C 55.257812 23.691406 55.328125 23.808594 55.492188 23.84375 C 55.574219 23.863281 56.1875 23.929688 56.417969 23.957031 C 56.355469 24.097656 56.058594 24.71875 55.980469 24.898438 C 55.921875 25.039062 56.011719 25.1875 56.148438 25.199219 C 56.261719 25.207031 56.339844 25.148438 56.386719 25.054688 C 56.59375 24.664062 56.804688 24.269531 57.011719 23.878906 C 57.054688 23.804688 57.0625 23.722656 57.035156 23.636719 C 56.988281 23.496094 56.871094 23.460938 56.746094 23.4375 C 56.53125 23.398438 56.320312 23.355469 56.105469 23.316406 C 56.105469 23.316406 56.417969 22.773438 56.453125 22.710938 C 56.453125 22.710938 56.757812 22.898438 56.878906 22.96875 C 56.984375 23.03125 57.09375 23.023438 57.179688 22.941406 C 57.34375 22.785156 57.757812 22.390625 57.789062 22.339844 C 57.871094 22.222656 57.789062 22.070312 57.660156 22.066406 C 57.578125 22.066406 57.523438 22.109375 57.464844 22.15625 C 57.316406 22.277344 57.171875 22.40625 57.023438 22.527344 C 57.019531 22.53125 56.582031 22.203125 56.554688 22.179688 C 56.53125 22.164062 56.519531 22.15625 56.492188 22.15625 C 56.46875 22.15625 56.445312 22.15625 56.425781 22.152344 C 56.378906 22.148438 56.339844 22.136719 56.296875 22.121094 C 56.234375 22.097656 56.179688 22.0625 56.128906 22.015625 C 56.113281 22 56.09375 21.964844 56.070312 21.953125 C 56.046875 21.941406 56.023438 21.949219 56 21.953125 C 55.957031 21.960938 55.914062 21.96875 55.871094 21.980469 C 55.71875 22.011719 54.875 22.25 54.828125 22.265625 C 54.75 22.296875 54.679688 22.339844 54.621094 22.40625 C 54.453125 22.609375 54.277344 22.800781 54.109375 23 C 54.066406 23.054688 54.058594 23.121094 54.09375 23.1875 C 54.136719 23.242188 54.175781 23.285156 54.25 23.28125 Z M 54.25 23.28125 " fill-opacity="1" fill-rule="nonzero"/></g><g clip-path="url(#688d856583)"><path fill="#000000" d="M 58.207031 23.675781 L 57.730469 23.945312 L 57.953125 24.113281 C 56.914062 25.382812 55.773438 25.933594 54.988281 26.167969 C 54.121094 26.425781 53.496094 26.375 53.488281 26.375 L 53.664062 26.53125 L 53.515625 26.710938 C 53.53125 26.710938 53.554688 26.710938 53.582031 26.714844 C 53.816406 26.71875 54.367188 26.703125 55.070312 26.492188 C 55.902344 26.246094 57.121094 25.664062 58.222656 24.316406 L 58.4375 24.476562 L 58.558594 23.945312 L 58.675781 23.414062 Z M 58.207031 23.675781 " fill-opacity="1" fill-rule="nonzero"/></g><path fill="#000000" d="M 93.304688 23.828125 C 93.335938 24.066406 93.371094 24.304688 93.402344 24.542969 C 93.40625 24.570312 93.410156 24.589844 93.425781 24.605469 C 93.492188 24.707031 93.5625 24.804688 93.628906 24.902344 C 93.78125 25.109375 93.933594 25.320312 94.082031 25.535156 C 94.109375 25.574219 94.132812 25.617188 94.144531 25.664062 C 94.175781 25.792969 94.066406 25.925781 93.933594 25.917969 C 93.84375 25.914062 93.785156 25.863281 93.730469 25.800781 C 93.464844 25.464844 93.199219 25.128906 92.929688 24.789062 C 92.898438 24.75 92.875 24.699219 92.863281 24.648438 C 92.820312 24.4375 92.769531 24.226562 92.726562 24.011719 C 92.75 24.007812 92.992188 23.980469 93.058594 23.96875 C 93.160156 23.949219 93.242188 23.898438 93.304688 23.828125 Z M 93.304688 23.828125 " fill-opacity="1" fill-rule="nonzero"/><g clip-path="url(#7c0dbd5e6a)"><path fill="#000000" d="M 91.84375 21.152344 C 91.738281 21.191406 91.664062 21.265625 91.625 21.378906 C 91.582031 21.488281 91.582031 21.601562 91.628906 21.71875 C 91.671875 21.832031 91.746094 21.917969 91.851562 21.972656 C 91.957031 22.023438 92.0625 22.03125 92.167969 21.992188 C 92.273438 21.953125 92.347656 21.875 92.386719 21.765625 C 92.429688 21.65625 92.429688 21.542969 92.382812 21.425781 C 92.339844 21.308594 92.265625 21.226562 92.160156 21.171875 C 92.054688 21.117188 91.949219 21.109375 91.84375 21.152344 Z M 91.84375 21.152344 " fill-opacity="1" fill-rule="nonzero"/></g><g clip-path="url(#85cc337c7c)"><path fill="#000000" d="M 94.273438 23.28125 C 94.226562 23.28125 94.1875 23.265625 94.15625 23.242188 C 94.113281 23.214844 93.636719 22.71875 93.582031 22.691406 C 93.527344 22.664062 92.992188 22.558594 92.992188 22.558594 L 93.25 23.355469 C 93.273438 23.421875 93.28125 23.484375 93.277344 23.550781 C 93.265625 23.691406 93.199219 23.808594 93.03125 23.84375 C 92.949219 23.863281 92.339844 23.929688 92.109375 23.957031 C 92.171875 24.097656 92.464844 24.71875 92.542969 24.898438 C 92.605469 25.039062 92.515625 25.1875 92.375 25.199219 C 92.265625 25.207031 92.1875 25.148438 92.136719 25.054688 C 91.929688 24.664062 91.722656 24.269531 91.511719 23.878906 C 91.472656 23.804688 91.464844 23.722656 91.492188 23.636719 C 91.535156 23.496094 91.65625 23.460938 91.78125 23.4375 C 91.992188 23.398438 92.207031 23.355469 92.421875 23.316406 C 92.421875 23.316406 92.109375 22.773438 92.070312 22.710938 C 92.070312 22.710938 91.765625 22.898438 91.648438 22.96875 C 91.542969 23.03125 91.429688 23.023438 91.347656 22.941406 C 91.183594 22.785156 90.769531 22.390625 90.734375 22.339844 C 90.652344 22.222656 90.734375 22.070312 90.867188 22.066406 C 90.949219 22.066406 91.003906 22.109375 91.058594 22.15625 C 91.207031 22.277344 91.351562 22.40625 91.503906 22.527344 C 91.507812 22.53125 91.945312 22.203125 91.972656 22.179688 C 91.992188 22.164062 92.003906 22.15625 92.035156 22.15625 C 92.058594 22.15625 92.078125 22.15625 92.101562 22.152344 C 92.144531 22.148438 92.1875 22.136719 92.226562 22.121094 C 92.292969 22.097656 92.347656 22.0625 92.394531 22.015625 C 92.414062 22 92.433594 21.964844 92.453125 21.953125 C 92.476562 21.941406 92.503906 21.949219 92.527344 21.953125 C 92.570312 21.960938 92.609375 21.96875 92.65625 21.980469 C 92.808594 22.011719 93.648438 22.25 93.699219 22.265625 C 93.777344 22.296875 93.847656 22.339844 93.90625 22.40625 C 94.074219 22.609375 94.25 22.800781 94.417969 23 C 94.460938 23.054688 94.46875 23.121094 94.429688 23.1875 C 94.390625 23.242188 94.347656 23.285156 94.273438 23.28125 Z M 94.273438 23.28125 " fill-opacity="1" fill-rule="nonzero"/></g><g clip-path="url(#480ccffe5c)"><path fill="#000000" d="M 90.320312 23.675781 L 90.796875 23.945312 L 90.570312 24.113281 C 91.609375 25.382812 92.753906 25.933594 93.539062 26.167969 C 94.40625 26.425781 95.03125 26.375 95.039062 26.375 L 94.863281 26.53125 L 95.011719 26.710938 C 94.992188 26.710938 94.96875 26.710938 94.945312 26.714844 C 94.710938 26.71875 94.160156 26.703125 93.457031 26.492188 C 92.621094 26.246094 91.40625 25.664062 90.304688 24.316406 L 90.089844 24.476562 L 89.96875 23.945312 L 89.851562 23.414062 Z M 90.320312 23.675781 " fill-opacity="1" fill-rule="nonzero"/></g><g fill="#000000" fill-opacity="1"><g transform="translate(100.148074, 35.813347)"><g><path d="M 8.359375 -4.03125 C 8.359375 -3.207031 8.25 -2.53125 8.03125 -2 C 7.8125 -1.476562 7.539062 -1.070312 7.21875 -0.78125 C 6.90625 -0.488281 6.550781 -0.285156 6.15625 -0.171875 C 5.757812 -0.0546875 5.367188 0 4.984375 0 L 1.109375 0 L 1.109375 -25.53125 L 4.984375 -25.53125 C 5.367188 -25.53125 5.757812 -25.472656 6.15625 -25.359375 C 6.550781 -25.242188 6.90625 -25.035156 7.21875 -24.734375 C 7.539062 -24.441406 7.8125 -24.035156 8.03125 -23.515625 C 8.25 -22.992188 8.359375 -22.320312 8.359375 -21.5 L 8.359375 -16.171875 C 8.359375 -15.429688 8.242188 -14.78125 8.015625 -14.21875 C 7.785156 -13.65625 7.363281 -13.25 6.75 -13 C 7.363281 -12.71875 7.785156 -12.300781 8.015625 -11.75 C 8.242188 -11.195312 8.359375 -10.539062 8.359375 -9.78125 Z M 6.0625 -21.734375 C 6.0625 -22.242188 5.957031 -22.613281 5.75 -22.84375 C 5.539062 -23.070312 5.269531 -23.1875 4.9375 -23.1875 L 3.453125 -23.1875 L 3.453125 -14.03125 L 4.71875 -14.03125 C 5.125 -14.03125 5.445312 -14.179688 5.6875 -14.484375 C 5.9375 -14.796875 6.0625 -15.207031 6.0625 -15.71875 Z M 6.0625 -10.3125 C 6.0625 -10.820312 5.9375 -11.226562 5.6875 -11.53125 C 5.445312 -11.84375 5.125 -12 4.71875 -12 L 3.453125 -12 L 3.453125 -2.34375 L 4.9375 -2.34375 C 5.269531 -2.34375 5.539062 -2.457031 5.75 -2.6875 C 5.957031 -2.914062 6.0625 -3.285156 6.0625 -3.796875 Z M 6.0625 -10.3125 "/></g></g></g><g fill="#000000" fill-opacity="1"><g transform="translate(109.383602, 35.813347)"><g><path d="M 8.546875 -5.015625 C 8.546875 -3.304688 8.269531 -2.039062 7.71875 -1.21875 C 7.175781 -0.40625 6.25 0 4.9375 0 L 1.109375 0 L 1.109375 -25.53125 L 4.9375 -25.53125 C 6.25 -25.53125 7.175781 -25.117188 7.71875 -24.296875 C 8.269531 -23.484375 8.546875 -22.21875 8.546875 -20.5 Z M 6.25 -20.921875 C 6.25 -21.742188 6.148438 -22.328125 5.953125 -22.671875 C 5.765625 -23.015625 5.425781 -23.1875 4.9375 -23.1875 L 3.453125 -23.1875 L 3.453125 -2.34375 L 4.9375 -2.34375 C 5.425781 -2.34375 5.765625 -2.503906 5.953125 -2.828125 C 6.148438 -3.160156 6.25 -3.738281 6.25 -4.5625 Z M 6.25 -20.921875 "/></g></g></g></svg>